<svg xmlns="http://www.w3.org/2000/svg" width="600" height="360" viewBox="0 0 600 360" fill="none">
<defs>
  <radialGradient id="gGold" cx="0" cy="0" r="1" gradientUnits="userSpaceOnUse" gradientTransform="translate(260 120) rotate(90) scale(180)">
    <stop stop-color="#FFF2B3"/>
    <stop offset="0.55" stop-color="#F3D37D"/>
    <stop offset="1" stop-color="#B68114"/>
  </radialGradient>
  <linearGradient id="gGoldEdge" x1="0" y1="0" x2="0" y2="1">
    <stop stop-color="#FFE6A1"/>
    <stop offset="1" stop-color="#B67D12"/>
  </linearGradient>
  <linearGradient id="gSteel" x1="0" y1="0" x2="0" y2="1">
    <stop stop-color="#3B465A"/>
    <stop offset="1" stop-color="#121A28"/>
  </linearGradient>
  <filter id="fSoftShadow" x="-30%" y="-30%" width="160%" height="160%">
    <feDropShadow dx="0" dy="14" stdDeviation="14" flood-color="#000" flood-opacity="0.35"/>
  </filter>
  <filter id="fGlow" x="-50%" y="-50%" width="200%" height="200%">
    <feGaussianBlur stdDeviation="10" result="b"/>
    <feColorMatrix in="b" type="matrix"
      values="1 0 0 0 0.96  0 1 0 0 0.82  0 0 1 0 0.36  0 0 0 0.35 0" result="c"/>
    <feMerge><feMergeNode in="c"/><feMergeNode in="SourceGraphic"/></feMerge>
  </filter>
</defs>
<ellipse cx="300" cy="300" rx="240" ry="46" fill="#F3D37D" opacity="0.08" filter="url(#fGlow)"/>
<g transform="translate(250 238)" filter="url(#fSoftShadow)">
<rect x="-77.89999999999999" y="-27.879999999999995" width="155.79999999999998" height="98.39999999999999" rx="14.76" fill="url(#gSteel)"/>
<rect x="-77.89999999999999" y="-27.879999999999995" width="155.79999999999998" height="98.39999999999999" rx="14.76" fill="rgba(0,0,0,0.18)"/>
<rect x="-77.89999999999999" y="0.0" width="155.79999999999998" height="9.84" rx="4.92" fill="url(#gGoldEdge)" opacity="0.95"/>
<rect x="-64.77999999999999" y="-27.879999999999995" width="9.84" height="98.39999999999999" rx="4.92" fill="url(#gGoldEdge)" opacity="0.75"/>
<rect x="54.94" y="-27.879999999999995" width="9.84" height="98.39999999999999" rx="4.92" fill="url(#gGoldEdge)" opacity="0.75"/>
<rect x="-14.76" y="8.2" width="29.52" height="36.08" rx="8.2" fill="url(#gGold)"/>
<circle cx="0" cy="24.599999999999998" r="5.739999999999999" fill="#0E1420" opacity="0.85"/>
<path d="M -77.89999999999999 -27.879999999999995 L 77.89999999999999 -27.879999999999995 L 64.77999999999999 -65.6 L -64.77999999999999 -65.6 Z" fill="url(#gSteel)"/>
<path d="M -64.77999999999999 -65.6 L 64.77999999999999 -65.6 L 50.019999999999996 -77.08 L -50.019999999999996 -77.08 Z" fill="rgba(255,255,255,0.06)"/>
<path d="M -61.49999999999999 -72.16 L 61.49999999999999 -72.16" stroke="url(#gGoldEdge)" stroke-width="8.2" stroke-linecap="round" opacity="0.8"/>
</g>
<g transform="translate(380 248)" filter="url(#fSoftShadow)">
<rect x="-87.4" y="-31.28" width="174.8" height="110.4" rx="16.560000000000002" fill="url(#gSteel)"/>
<rect x="-87.4" y="-31.28" width="174.8" height="110.4" rx="16.560000000000002" fill="rgba(0,0,0,0.18)"/>
<rect x="-87.4" y="0.0" width="174.8" height="11.040000000000001" rx="5.5200000000000005" fill="url(#gGoldEdge)" opacity="0.95"/>
<rect x="-72.68" y="-31.28" width="11.040000000000001" height="110.4" rx="5.5200000000000005" fill="url(#gGoldEdge)" opacity="0.75"/>
<rect x="61.64" y="-31.28" width="11.040000000000001" height="110.4" rx="5.5200000000000005" fill="url(#gGoldEdge)" opacity="0.75"/>
<rect x="-16.560000000000002" y="9.200000000000001" width="33.120000000000005" height="40.480000000000004" rx="9.200000000000001" fill="url(#gGold)"/>
<circle cx="0" cy="27.6" r="6.44" fill="#0E1420" opacity="0.85"/>
<path d="M -87.4 -31.28 L 87.4 -31.28 L 72.68 -73.60000000000001 L -72.68 -73.60000000000001 Z" fill="url(#gSteel)"/>
<path d="M -72.68 -73.60000000000001 L 72.68 -73.60000000000001 L 56.120000000000005 -86.48 L -56.120000000000005 -86.48 Z" fill="rgba(255,255,255,0.06)"/>
<path d="M -69.0 -80.96000000000001 L 69.0 -80.96000000000001" stroke="url(#gGoldEdge)" stroke-width="9.200000000000001" stroke-linecap="round" opacity="0.8"/>
</g>
<g transform="translate(180 302)" filter="url(#fSoftShadow)">
<ellipse cx="0" cy="0.0" rx="39.0" ry="11.05" fill="url(#gGoldEdge)" opacity="0.88"/>
<ellipse cx="0" cy="-1.3" rx="35.88" ry="9.061" fill="url(#gGold)" opacity="0.95"/>
<ellipse cx="0" cy="-6.5" rx="39.0" ry="11.05" fill="url(#gGoldEdge)" opacity="0.88"/>
<ellipse cx="0" cy="-7.8" rx="35.88" ry="9.061" fill="url(#gGold)" opacity="0.95"/>
<ellipse cx="0" cy="-13.0" rx="39.0" ry="11.05" fill="url(#gGoldEdge)" opacity="0.88"/>
<ellipse cx="0" cy="-14.3" rx="35.88" ry="9.061" fill="url(#gGold)" opacity="0.95"/>
<ellipse cx="0" cy="-17.55" rx="35.1" ry="7.735" fill="#FFF2B3" opacity="0.35"/>
</g>
<g transform="translate(455 298) rotate(16)" filter="url(#fSoftShadow)">
  <circle cx="0" cy="0" r="17.64" fill="url(#gGold)"/>
  <circle cx="0" cy="0" r="14.4648" fill="rgba(0,0,0,0.10)"/>
  <circle cx="0" cy="0" r="13.759200000000002" fill="url(#gGold)"/>
  <circle cx="0" cy="0" r="10.9368" fill="rgba(0,0,0,0.12)"/>
  <path d="M -4.9392000000000005 -3.1752 H 2.1168 C 5.292 -3.1752 6.3504 -1.0584 6.3504 0.3528 C 6.3504 2.1168 4.9392000000000005 3.5280000000000005 2.4696000000000002 3.5280000000000005 H -0.3528 V 5.9976 H 2.8224 C 7.4088 5.9976 9.5256 2.8224 9.5256 -0.3528 C 9.5256 -3.8808000000000002 7.056000000000001 -5.9976 2.1168 -5.9976 H -4.9392000000000005 Z"
        fill="#0E1420" opacity="0.92"/>
  <path d="M -1.0584 -0.7056 H 2.8224 V 1.0584 H -1.0584 V 4.2336 H 4.2336 V 5.9976 H -1.0584 Z"
        fill="#0E1420" opacity="0.92"/>
</g>
</svg>